<?xml version="1.0" encoding="UTF-8" standalone="no"?>
<!-- Created with Inkscape (http://www.inkscape.org/) -->

<svg
   width="102.95996mm"
   height="124.3917mm"
   viewBox="0 0 102.95996 124.3917"
   version="1.1"
   id="svg1"
   xml:space="preserve"
   xmlns:inkscape="http://www.inkscape.org/namespaces/inkscape"
   xmlns:sodipodi="http://sodipodi.sourceforge.net/DTD/sodipodi-0.dtd"
   xmlns="http://www.w3.org/2000/svg"
   xmlns:svg="http://www.w3.org/2000/svg"><sodipodi:namedview
     id="namedview1"
     pagecolor="#ffffff"
     bordercolor="#000000"
     borderopacity="0.25"
     inkscape:showpageshadow="2"
     inkscape:pageopacity="0.0"
     inkscape:pagecheckerboard="0"
     inkscape:deskcolor="#d1d1d1"
     inkscape:document-units="mm" /><defs
     id="defs1" /><g
     inkscape:label="Layer 1"
     inkscape:groupmode="layer"
     id="layer1"
     transform="translate(-49.058694,-157.00003)"><path
       style="fill:#000000"
       d="m 98.904367,281.26707 c -0.822742,-0.12588 -0.871327,-0.33089 -0.678593,-2.86348 0.09741,-1.28006 0.131927,-2.40051 0.07669,-2.48988 -0.05523,-0.0894 -0.0048,-0.27767 0.112019,-0.41846 0.350298,-0.42208 3.157727,-0.31061 3.157727,0.12538 0,0.0905 -0.50218,0.14831 -1.11595,0.12844 -0.613779,-0.0199 -1.203988,0.0183 -1.311579,0.0848 -0.303899,0.18783 -0.451918,1.31609 -0.235091,1.79198 0.174554,0.3831 0.302182,0.42601 1.26723,0.42601 0.78102,0 1.05285,0.0598 0.99866,0.21973 -0.0482,0.14234 -0.43755,0.21973 -1.10541,0.21973 -0.922491,0 -1.054632,0.0462 -1.255984,0.43946 -0.307067,0.59968 -0.286941,1.32443 0.04602,1.65739 0.193828,0.19383 0.613344,0.27624 1.406274,0.27624 0.88729,0 1.13004,0.0566 1.13004,0.26367 0,0.20687 -0.21779,0.25801 -1.01076,0.23734 -0.555914,-0.0145 -1.222501,-0.0587 -1.4813,-0.0983 z m 4.948533,0.0807 c -0.002,-0.0242 -0.0537,-1.28981 -0.11393,-2.81255 -0.074,-1.87153 -0.0501,-2.7686 0.0736,-2.7686 0.32232,0 0.39641,0.5084 0.39641,2.72023 0,2.47256 -0.0638,2.37752 1.59644,2.37752 0.80755,0 1.04033,0.059 1.04033,0.26367 0,0.2137 -0.28321,0.26368 -1.49417,0.26368 -0.82179,0 -1.4962,-0.0198 -1.49868,-0.044 z m 4.86845,-0.96681 c -0.0566,-0.36256 -0.15745,-1.58865 -0.22405,-2.72466 -0.10379,-1.77054 -0.0835,-2.06547 0.14197,-2.06547 0.20876,0 0.2874,0.37187 0.38106,1.80179 0.0649,0.99099 0.16679,2.21709 0.22641,2.72466 0.0885,0.75369 0.0597,0.92287 -0.15701,0.92287 -0.17121,0 -0.30196,-0.23398 -0.36838,-0.65919 z m 2.44842,0.28539 c -0.0485,-0.22948 -0.21894,-1.51489 -0.37874,-2.85648 -0.23117,-1.94064 -0.24556,-2.46706 -0.0704,-2.57532 0.313,-0.19344 2.80201,-0.54519 2.99851,-0.42375 0.32967,0.20375 -0.0568,0.42846 -0.73695,0.42846 -0.38413,0 -0.98281,0.11883 -1.33042,0.26407 -0.617,0.2578 -0.6292,0.28159 -0.51399,1.00204 0.16588,1.03739 0.37918,1.22873 1.32205,1.18592 1.33571,-0.0606 1.3859,0.029 0.18681,0.3338 l -1.1426,0.2904 0.0101,0.82015 c 0.0154,1.24739 0.25617,1.43023 1.69337,1.2859 0.74363,-0.0747 1.19695,-0.0552 1.19695,0.0514 0,0.19466 -0.48876,0.31052 -2.05667,0.48754 -1.04926,0.11847 -1.09314,0.10751 -1.17804,-0.29417 z m -16.348228,-0.126 c -0.08563,-0.13855 -0.0025,-1.04213 0.353836,-3.84774 0.137514,-1.0826 -0.03043,-1.36684 -0.904481,-1.53082 -0.33494,-0.0628 -0.608982,-0.18976 -0.608982,-0.28206 0,-0.29455 1.812493,-0.16137 3.830502,0.28147 0.603222,0.13237 0.260331,0.47677 -0.379575,0.38125 -0.302766,-0.0452 -0.72421,-0.0168 -0.936542,0.0631 -0.422861,0.15907 -0.440011,0.22763 -0.778746,3.11332 -0.19957,1.70013 -0.352382,2.18337 -0.576012,1.82153 z m -3.62061,-0.86736 c 0,-0.80922 -1.111447,-1.44059 -2.610968,-1.48318 -0.463187,-0.0132 -0.68242,0.10205 -1.023501,0.53788 -0.416445,0.53211 -0.760144,0.7168 -0.760144,0.40846 0,-0.36752 3.195795,-4.8637 3.457027,-4.8637 0.301482,0 0.432155,0.44456 1.007554,3.4278 0.158505,0.82179 0.335486,1.67215 0.39329,1.88968 0.07717,0.2904 0.02957,0.39551 -0.17908,0.39551 -0.156298,0 -0.284178,-0.1406 -0.284178,-0.31245 z m -0.525366,-1.88725 c 0.285447,-0.34394 -0.105278,-2.35391 -0.485984,-2.5 -0.429219,-0.1647 -1.748774,1.66371 -1.558512,2.15953 0.08861,0.2309 0.93877,0.55751 1.537577,0.59069 0.157354,0.009 0.385468,-0.10388 0.506919,-0.25022 z m 25.581274,-0.46358 c -0.47318,-2.51934 -0.48358,-2.67544 -0.19252,-2.88826 0.41601,-0.3042 2.36561,-0.49422 2.91056,-0.28369 1.05305,0.40684 1.52676,1.77729 0.98778,2.85768 -0.39739,0.7966 -0.35986,1.04982 0.25243,1.70312 0.32627,0.34811 0.44,0.5713 0.29111,0.5713 -0.13439,0 -0.49628,-0.27686 -0.8042,-0.61525 -0.46053,-0.50609 -0.68385,-0.61524 -1.25874,-0.61524 -0.95982,0 -1.41807,0.46798 -1.28161,1.30887 0.0768,0.47338 0.0401,0.62475 -0.15161,0.62475 -0.18699,0 -0.38349,-0.6948 -0.7532,-2.66328 z m 2.42869,0.11381 c 0.85986,-0.35928 1.21374,-1.06241 0.95652,-1.90052 -0.24192,-0.78826 -0.96553,-1.15973 -2.03268,-1.0435 -1.03363,0.11257 -1.27051,0.48737 -1.05554,1.67012 0.0915,0.5033 0.24136,1.05529 0.33306,1.22663 0.2062,0.3853 0.94327,0.40467 1.79864,0.0473 z m -20.89268,-8.4265 c -11.654707,-1.08724 -21.651337,-4.86966 -30.144166,-11.4056 -2.423089,-1.86477 -6.981657,-6.42345 -8.664592,-8.66481 -4.190875,-5.58147 -7.057743,-11.5821 -8.556501,-17.90959 -1.125227,-4.7505 -1.592863,-10.37251 -1.267652,-15.23995 0.601556,-9.00349 2.787527,-15.91355 7.41283,-23.43264 3.375587,-5.48749 9.63786,-11.67594 15.467652,-15.28531 11.197609,-6.93272 24.505157,-9.50714 39.024159,-7.54945 7.28649,0.98249 15.55835,3.36658 20.83046,6.00369 2.18342,1.09215 4.19435,2.2649 4.54159,2.64859 0.31629,0.34949 0.37812,0.72769 1.97064,12.05315 0.90282,6.42057 0.96226,7.0351 0.70528,7.29207 -0.48227,0.48228 -0.84934,0.0153 -1.51626,-1.92875 -0.88319,-2.57457 -1.55553,-4.09643 -2.54354,-5.75739 -3.602,-6.05538 -9.52361,-10.80969 -17.34887,-13.92898 -9.17133,-3.65585 -21.208788,-3.84311 -30.4581,-0.47382 -5.34784,1.94808 -9.820051,4.80007 -14.124319,9.00727 -4.025042,3.93426 -6.696683,7.59138 -8.995454,12.31355 -2.978746,6.11898 -4.401262,11.97951 -4.714799,19.42418 -0.626236,14.86946 3.8029,26.9315 13.397789,36.48675 5.786142,5.76224 11.473866,8.99545 19.328246,10.98722 6.986565,1.77169 15.781767,1.95893 23.025157,0.49016 11.39534,-2.31068 21.02028,-8.69223 27.27351,-18.08295 2.18802,-3.28583 4.85013,-9.04531 5.72711,-12.39062 0.94336,-3.5985 1.12317,-4.41061 1.56654,-7.07532 0.32707,-1.96576 0.39508,-2.63488 0.68337,-6.72376 l 0.29125,-4.13094 0.56128,-0.0543 c 0.52319,-0.0507 0.56969,-0.01 0.68497,0.60491 0.19414,1.03489 -0.0564,8.68921 -0.37039,11.31489 -1.21272,10.14177 -4.20301,18.10108 -9.4235,25.08266 -1.66384,2.22514 -5.2017,5.75705 -7.48594,7.47335 -6.2412,4.68945 -13.94515,7.58306 -23.07867,8.66837 -3.20327,0.38064 -10.62729,0.47933 -13.79908,0.18343 z M 78.063968,251.1524 c -0.721225,-0.29007 -0.28061,-0.64249 0.946541,-0.75708 2.14435,-0.20025 3.908764,-1.37328 4.81489,-3.20109 l 0.432045,-0.87151 v -24.34615 c 0,-26.94706 0.08198,-25.10669 -1.179353,-26.47508 -0.83622,-0.90719 -1.907236,-1.3076 -3.898088,-1.45735 -0.857321,-0.0645 -1.425749,-0.18771 -1.468963,-0.31844 -0.09167,-0.27733 0.04348,-0.30126 4.700667,-0.83217 4.187644,-0.47737 7.85426,-1.02625 14.590113,-2.18409 7.7311,-1.32892 7.70866,-1.32643 11.95334,-1.32643 5.2897,0 8.24121,0.46573 11.74025,1.85252 3.73378,1.47984 6.06342,3.13155 7.95212,5.63804 2.59024,3.43752 3.64162,7.4281 3.29419,12.50331 -0.51942,7.58748 -4.74621,13.50202 -11.45327,16.02656 -4.07987,1.53565 -8.18797,1.79636 -12.22738,0.77597 -2.92949,-0.74001 -5.52553,-2.57418 -6.66239,-4.70715 -0.67997,-1.27576 -0.90846,-2.55356 -0.48562,-2.71582 0.20198,-0.0775 0.47423,0.14501 0.93886,0.76736 1.22138,1.63599 2.91951,2.35783 5.50757,2.34117 3.80822,-0.0245 6.76053,-2.00659 8.78506,-5.89798 1.1019,-2.118 1.5944,-4.27452 1.69865,-7.43793 0.18643,-5.6572 -1.14935,-9.67047 -4.13657,-12.42809 -2.05224,-1.89451 -4.77006,-2.8259 -8.20348,-2.81132 -2.75943,0.0117 -7.804402,0.7617 -8.131327,1.20879 -0.18018,0.24641 -0.215198,5.37137 -0.177502,25.97774 l 0.04696,25.67076 0.414422,0.9165 c 0.494447,1.09347 1.818153,2.38821 2.928057,2.86397 0.43821,0.18784 1.31127,0.39424 1.94014,0.45867 1.21667,0.12465 1.46864,0.27902 1.12712,0.69052 -0.18254,0.21995 -1.98474,0.25441 -12.803451,0.24484 -7.004581,-0.006 -12.765198,-0.0812 -12.983601,-0.16904 z m 30.715412,-87.84254 c -0.53175,-0.036 -1.02109,-0.12025 -1.08744,-0.18722 -0.17233,-0.17397 0.18115,-5.1036 0.39454,-5.50233 0.19349,-0.36153 0.66001,-0.40723 2.23101,-0.21853 0.58422,0.0702 0.92287,0.19487 0.92287,0.33982 0,0.17641 -0.28632,0.20496 -1.24743,0.12438 -1.45274,-0.12179 -1.55834,-0.0396 -1.56243,1.21663 -0.003,0.80797 0.0132,0.8323 0.6565,1.00955 0.36256,0.0999 0.8965,0.20987 1.18655,0.24439 0.29004,0.0345 -0.001,0.0746 -0.64735,0.0891 -1.27273,0.0285 -1.24452,0.004 -1.4625,1.25683 -0.16615,0.95472 0.18056,1.27719 1.47379,1.37074 0.59462,0.043 1.12409,0.1477 1.17659,0.23265 0.0939,0.15196 -0.10878,0.15435 -2.0347,0.024 z m -10.447667,-0.55404 c -0.05537,-0.0896 -0.150786,-1.139 -0.212032,-2.33201 -0.06125,-1.19302 -0.182397,-2.30755 -0.269225,-2.47674 -0.119045,-0.23197 -0.377781,-0.30762 -1.052129,-0.30762 -0.732943,0 -0.858561,-0.043 -0.696356,-0.23847 0.200945,-0.24212 3.696556,-0.52717 4.181719,-0.341 0.42446,0.16288 0.0463,0.40368 -0.633953,0.40368 -1.063853,0 -1.134734,0.20306 -1.012767,2.90139 0.09551,2.11301 -0.0025,2.88064 -0.305257,2.39077 z m 3.064717,-2.73291 c 0,-1.49286 0.0708,-2.75805 0.15737,-2.81154 0.22894,-0.1415 0.3696,0.34063 0.37268,1.27743 0.004,1.2613 0.11928,1.34877 1.76728,1.34258 1.69065,-0.006 1.9215,-0.1905 1.9215,-1.53277 0,-0.5257 0.0678,-0.8138 0.17578,-0.74706 0.19771,0.12219 0.20115,2.39708 0.006,4.13094 l -0.12843,1.1426 -0.0268,-0.98352 c -0.0354,-1.2982 -0.28655,-1.51052 -1.96713,-1.66281 -1.60754,-0.14567 -1.78381,-0.004 -1.89397,1.51852 -0.147,2.0323 -0.38453,0.99802 -0.38453,-1.67437 z"
       id="path1" /></g></svg>
